<svg width="24" height="24" viewBox="0 0 24 24" fill="none" xmlns="http://www.w3.org/2000/svg">
<path fill-rule="evenodd" clip-rule="evenodd" d="M6.8 7.0001C6.8 4.18345 9.08335 1.9001 11.9 1.9001C14.7167 1.9001 17 4.18345 17 7.0001C17 9.81675 14.7167 12.1001 11.9 12.1001C9.08335 12.1001 6.8 9.81675 6.8 7.0001ZM15.7404 12.7334C17.5856 11.495 18.8 9.38935 18.8 7.0001C18.8 3.18933 15.7108 0.100098 11.9 0.100098C8.08924 0.100098 5 3.18933 5 7.0001C5 9.38935 6.21437 11.495 8.05957 12.7334C3.37182 14.3309 0 18.7717 0 24.0001H1.8C1.8 18.422 6.32192 13.9001 11.9 13.9001C17.4781 13.9001 22 18.422 22 24.0001H23.8C23.8 18.7717 20.4282 14.3309 15.7404 12.7334Z" fill="black"/>
</svg>
