<svg width="24" height="25" viewBox="0 0 24 25" fill="none" xmlns="http://www.w3.org/2000/svg">
<path fill-rule="evenodd" clip-rule="evenodd" d="M17.2 9.5C17.2 13.7526 13.7526 17.2 9.5 17.2C5.24741 17.2 1.8 13.7526 1.8 9.5C1.8 5.24741 5.24741 1.8 9.5 1.8C13.7526 1.8 17.2 5.24741 17.2 9.5ZM15.2412 17.0696C13.6464 18.281 11.6572 19 9.5 19C4.25329 19 0 14.7467 0 9.5C0 4.25329 4.25329 0 9.5 0C14.7467 0 19 4.25329 19 9.5C19 11.8688 18.133 14.0352 16.699 15.699L23.7071 22.7071L22.2929 24.1213L15.2412 17.0696Z" fill="black"/>
</svg>
