<svg width="13" height="12" viewBox="0 0 13 12" fill="none" xmlns="http://www.w3.org/2000/svg">
<path d="M11.7384 0.73733C12.157 0.566228 12.5897 0.949939 12.4978 1.41065L10.6205 10.8114C10.5328 11.2521 10.0386 11.4506 9.69211 11.184L6.85818 9.00473L5.41365 10.5499C5.1598 10.8211 4.72212 10.7107 4.61323 10.3492L3.57102 6.88324L0.777363 6.01879C0.410396 5.90544 0.389191 5.37065 0.744838 5.22473L11.7384 0.73733ZM10.3603 2.82325C10.4826 2.7099 10.3405 2.50992 10.2019 2.60028L4.17198 6.51804C4.06591 6.58692 4.01715 6.72249 4.05459 6.84766L4.87692 10.6306C4.8932 10.6884 4.97236 10.6803 4.97946 10.6203L5.16329 7.73732C5.17034 7.66621 5.20287 7.60103 5.25381 7.55363L10.3603 2.82325Z" fill="white"/>
</svg>
