<svg width="13" height="14" viewBox="0 0 13 14" fill="none" xmlns="http://www.w3.org/2000/svg">
<path d="M6.2062 0.659689C3.00579 0.819189 0.480257 3.61147 0.489896 6.96797C0.492849 7.99029 0.728442 8.95524 1.14409 9.80799L0.506015 13.0527C0.471521 13.2283 0.622622 13.382 0.789064 13.3407L3.82401 12.5874C4.60376 12.9944 5.47957 13.2293 6.40644 13.2442C9.67756 13.2965 12.405 10.5756 12.5071 7.14995C12.6163 3.47792 9.72346 0.484161 6.2062 0.659689ZM9.82759 10.4346C8.93883 11.3657 7.757 11.8785 6.5 11.8785C5.76401 11.8785 5.05928 11.7055 4.40549 11.3644L3.98295 11.1438L2.12207 11.6055L2.51373 9.61369L2.30558 9.18645C1.96613 8.4901 1.79403 7.7372 1.79403 6.94847C1.79403 5.63156 2.28355 4.39359 3.17232 3.46241C4.05317 2.53953 5.25423 2.01849 6.50008 2.01849C7.75696 2.01849 8.93879 2.53132 9.82755 3.46241C10.7163 4.3935 11.2058 5.6316 11.2058 6.94834C11.2059 8.25356 10.7085 9.51177 9.82759 10.4346Z" fill="white"/>
<path d="M9.41682 8.31386L8.25263 7.9637C8.09968 7.91777 7.9348 7.96327 7.82328 8.0823L7.53855 8.38609C7.41854 8.5143 7.23643 8.55543 7.07753 8.48809C6.52682 8.2546 5.36833 7.17548 5.07265 6.63588C4.98717 6.48017 5.00132 6.2856 5.10616 6.14338L5.35463 5.80654C5.452 5.67463 5.47251 5.4973 5.40816 5.34476L4.91839 4.18426C4.80108 3.90634 4.46205 3.82538 4.24052 4.02167C3.91564 4.3096 3.53013 4.74698 3.48333 5.23167C3.40069 6.08618 3.75055 7.16328 5.07318 8.45668C6.6013 9.95105 7.82509 10.1483 8.62198 9.94615C9.07393 9.83155 9.43511 9.37187 9.66291 8.99543C9.8184 8.7386 9.69552 8.39777 9.41682 8.31386Z" fill="white"/>
</svg>
